<mxfile host="app.diagrams.net" agent="Mozilla/5.0 (Windows NT 10.0; Win64; x64) AppleWebKit/537.36 (KHTML, like Gecko) Chrome/131.0.0.0 Safari/537.36" version="25.0.1">
  <diagram name="Page-1" id="jkQbMSVFU5XPwJCwVNmS">
    <mxGraphModel dx="1834" dy="1572" grid="0" gridSize="10" guides="1" tooltips="1" connect="1" arrows="1" fold="1" page="0" pageScale="1" pageWidth="850" pageHeight="1100" math="0" shadow="0">
      <root>
        <mxCell id="0" />
        <mxCell id="1" parent="0" />
        <mxCell id="gAWKKwYR52MG0m6GFoxo-4" value="" style="whiteSpace=wrap;html=1;aspect=fixed;strokeWidth=3;" parent="1" vertex="1">
          <mxGeometry x="-202" y="-328" width="458" height="458" as="geometry" />
        </mxCell>
        <mxCell id="gAWKKwYR52MG0m6GFoxo-11" value="" style="line;strokeWidth=4;html=1;" parent="1" vertex="1">
          <mxGeometry x="-199" y="-299" width="456" height="10" as="geometry" />
        </mxCell>
        <mxCell id="gAWKKwYR52MG0m6GFoxo-15" value="" style="line;strokeWidth=3;direction=south;html=1;" parent="1" vertex="1">
          <mxGeometry x="28" y="-327" width="10" height="457" as="geometry" />
        </mxCell>
        <mxCell id="gAWKKwYR52MG0m6GFoxo-16" value="ATM" style="text;html=1;align=center;verticalAlign=middle;whiteSpace=wrap;rounded=0;fontSize=16;" parent="1" vertex="1">
          <mxGeometry x="-171" y="-327" width="60" height="30" as="geometry" />
        </mxCell>
        <mxCell id="gAWKKwYR52MG0m6GFoxo-17" value="Bank system" style="text;html=1;align=center;verticalAlign=middle;whiteSpace=wrap;rounded=0;fontSize=16;" parent="1" vertex="1">
          <mxGeometry x="84" y="-324" width="139" height="30" as="geometry" />
        </mxCell>
        <mxCell id="gAWKKwYR52MG0m6GFoxo-22" value="" style="html=1;verticalAlign=bottom;startArrow=circle;startFill=1;endArrow=open;startSize=6;endSize=8;curved=0;rounded=0;fontSize=12;entryX=0.582;entryY=0.071;entryDx=0;entryDy=0;entryPerimeter=0;" parent="1" target="gAWKKwYR52MG0m6GFoxo-23" edge="1">
          <mxGeometry x="-0.2546" y="28" width="80" relative="1" as="geometry">
            <mxPoint x="-83" y="-267" as="sourcePoint" />
            <mxPoint x="-23" y="-272" as="targetPoint" />
            <mxPoint as="offset" />
          </mxGeometry>
        </mxCell>
        <mxCell id="gAWKKwYR52MG0m6GFoxo-23" value="Check the card" style="rounded=1;whiteSpace=wrap;html=1;" parent="1" vertex="1">
          <mxGeometry x="-140" y="-215" width="98" height="28" as="geometry" />
        </mxCell>
        <mxCell id="gAWKKwYR52MG0m6GFoxo-25" value="Enter Pin" style="rounded=1;whiteSpace=wrap;html=1;" parent="1" vertex="1">
          <mxGeometry x="-143" y="-115" width="93" height="28" as="geometry" />
        </mxCell>
        <mxCell id="gAWKKwYR52MG0m6GFoxo-26" value="Display Option" style="rounded=1;whiteSpace=wrap;html=1;" parent="1" vertex="1">
          <mxGeometry x="-138" y="-20" width="100" height="28" as="geometry" />
        </mxCell>
        <mxCell id="gAWKKwYR52MG0m6GFoxo-27" value="Eject the card" style="rounded=1;whiteSpace=wrap;html=1;" parent="1" vertex="1">
          <mxGeometry x="-136" y="41" width="95" height="28" as="geometry" />
        </mxCell>
        <mxCell id="gAWKKwYR52MG0m6GFoxo-28" value="Check the pin number" style="rounded=1;whiteSpace=wrap;html=1;" parent="1" vertex="1">
          <mxGeometry x="99" y="-112.5" width="103" height="28" as="geometry" />
        </mxCell>
        <mxCell id="gAWKKwYR52MG0m6GFoxo-29" value="Perform a transaction" style="rounded=1;whiteSpace=wrap;html=1;" parent="1" vertex="1">
          <mxGeometry x="101" y="-20" width="105" height="28" as="geometry" />
        </mxCell>
        <mxCell id="gAWKKwYR52MG0m6GFoxo-30" value="" style="ellipse;html=1;shape=endState;fillColor=#000000;strokeColor=#000000;" parent="1" vertex="1">
          <mxGeometry x="-101.5" y="92" width="21" height="17" as="geometry" />
        </mxCell>
        <mxCell id="gAWKKwYR52MG0m6GFoxo-31" value="" style="rhombus;whiteSpace=wrap;html=1;fontColor=#000000;fillColor=#FFFFFF;strokeColor=#000000;" parent="1" vertex="1">
          <mxGeometry x="-93.5" y="-162" width="11" height="22" as="geometry" />
        </mxCell>
        <mxCell id="gAWKKwYR52MG0m6GFoxo-35" value="" style="endArrow=open;endFill=1;endSize=6;html=1;rounded=0;fontSize=12;curved=1;entryX=0.5;entryY=0;entryDx=0;entryDy=0;strokeWidth=1;" parent="1" target="gAWKKwYR52MG0m6GFoxo-31" edge="1">
          <mxGeometry width="160" relative="1" as="geometry">
            <mxPoint x="-87" y="-187" as="sourcePoint" />
            <mxPoint x="-230" y="-132.12790697674427" as="targetPoint" />
          </mxGeometry>
        </mxCell>
        <mxCell id="gAWKKwYR52MG0m6GFoxo-40" value="" style="endArrow=none;html=1;rounded=0;fontSize=12;startSize=8;endSize=8;curved=1;" parent="1" edge="1">
          <mxGeometry relative="1" as="geometry">
            <mxPoint x="-171.5" y="-150" as="sourcePoint" />
            <mxPoint x="-93" y="-152" as="targetPoint" />
          </mxGeometry>
        </mxCell>
        <mxCell id="gAWKKwYR52MG0m6GFoxo-41" value="" style="endArrow=none;html=1;rounded=0;fontSize=12;startSize=8;endSize=9;curved=1;" parent="1" edge="1">
          <mxGeometry relative="1" as="geometry">
            <mxPoint x="-171" y="-149" as="sourcePoint" />
            <mxPoint x="-171" y="60" as="targetPoint" />
          </mxGeometry>
        </mxCell>
        <mxCell id="gAWKKwYR52MG0m6GFoxo-42" value="" style="endArrow=open;endFill=1;endSize=4;html=1;rounded=0;fontSize=12;curved=1;" parent="1" edge="1">
          <mxGeometry width="160" relative="1" as="geometry">
            <mxPoint x="-172" y="61" as="sourcePoint" />
            <mxPoint x="-136" y="61" as="targetPoint" />
          </mxGeometry>
        </mxCell>
        <mxCell id="gAWKKwYR52MG0m6GFoxo-44" value="" style="endArrow=open;endFill=1;endSize=6;html=1;rounded=0;fontSize=12;curved=1;startSize=19;entryX=0.581;entryY=0.143;entryDx=0;entryDy=0;entryPerimeter=0;" parent="1" target="gAWKKwYR52MG0m6GFoxo-25" edge="1">
          <mxGeometry width="160" relative="1" as="geometry">
            <mxPoint x="-89" y="-140" as="sourcePoint" />
            <mxPoint x="-89" y="-118" as="targetPoint" />
          </mxGeometry>
        </mxCell>
        <mxCell id="gAWKKwYR52MG0m6GFoxo-46" value="" style="endArrow=open;endFill=1;endSize=12;html=1;rounded=0;fontSize=12;curved=1;entryX=0;entryY=0.482;entryDx=0;entryDy=0;entryPerimeter=0;" parent="1" target="gAWKKwYR52MG0m6GFoxo-28" edge="1">
          <mxGeometry width="160" relative="1" as="geometry">
            <mxPoint x="-50" y="-95.5" as="sourcePoint" />
            <mxPoint x="98" y="-93" as="targetPoint" />
          </mxGeometry>
        </mxCell>
        <mxCell id="gAWKKwYR52MG0m6GFoxo-61" value="" style="rhombus;whiteSpace=wrap;html=1;fontColor=#000000;fillColor=#FFFFFF;strokeColor=#000000;" parent="1" vertex="1">
          <mxGeometry x="-90" y="-63" width="15" height="23" as="geometry" />
        </mxCell>
        <mxCell id="gAWKKwYR52MG0m6GFoxo-65" value="" style="endArrow=open;endFill=1;endSize=19;html=1;rounded=0;fontSize=12;curved=1;startSize=10;targetPerimeterSpacing=6;" parent="1" edge="1">
          <mxGeometry width="160" relative="1" as="geometry">
            <mxPoint x="84" y="-50" as="sourcePoint" />
            <mxPoint x="-76" y="-50" as="targetPoint" />
          </mxGeometry>
        </mxCell>
        <mxCell id="gAWKKwYR52MG0m6GFoxo-67" value="" style="endArrow=none;html=1;rounded=0;fontSize=12;startSize=8;endSize=8;curved=1;strokeWidth=1;" parent="1" edge="1">
          <mxGeometry relative="1" as="geometry">
            <mxPoint x="82" y="-50" as="sourcePoint" />
            <mxPoint x="135" y="-50" as="targetPoint" />
          </mxGeometry>
        </mxCell>
        <mxCell id="gAWKKwYR52MG0m6GFoxo-68" value="" style="endArrow=open;endFill=1;endSize=6;html=1;rounded=0;fontSize=12;curved=1;" parent="1" edge="1">
          <mxGeometry width="160" relative="1" as="geometry">
            <mxPoint x="-82.5" y="-40" as="sourcePoint" />
            <mxPoint x="-82" y="-21" as="targetPoint" />
          </mxGeometry>
        </mxCell>
        <mxCell id="gAWKKwYR52MG0m6GFoxo-69" value="" style="endArrow=none;html=1;rounded=0;fontSize=12;startSize=8;endSize=8;curved=1;" parent="1" edge="1">
          <mxGeometry relative="1" as="geometry">
            <mxPoint x="-155" y="-51" as="sourcePoint" />
            <mxPoint x="-90" y="-51.5" as="targetPoint" />
          </mxGeometry>
        </mxCell>
        <mxCell id="gAWKKwYR52MG0m6GFoxo-70" value="" style="endArrow=none;html=1;rounded=0;fontSize=12;startSize=8;endSize=8;curved=1;" parent="1" edge="1">
          <mxGeometry relative="1" as="geometry">
            <mxPoint x="-155" y="55" as="sourcePoint" />
            <mxPoint x="-155" y="-53" as="targetPoint" />
          </mxGeometry>
        </mxCell>
        <mxCell id="gAWKKwYR52MG0m6GFoxo-72" value="" style="endArrow=open;endFill=1;endSize=5;html=1;rounded=0;fontSize=12;curved=1;startSize=5;" parent="1" edge="1">
          <mxGeometry width="160" relative="1" as="geometry">
            <mxPoint x="-154" y="54.5" as="sourcePoint" />
            <mxPoint x="-133" y="54.5" as="targetPoint" />
          </mxGeometry>
        </mxCell>
        <mxCell id="gAWKKwYR52MG0m6GFoxo-73" value="" style="endArrow=open;endFill=1;endSize=7;html=1;rounded=0;fontSize=12;curved=1;" parent="1" edge="1">
          <mxGeometry width="160" relative="1" as="geometry">
            <mxPoint x="126" y="61" as="sourcePoint" />
            <mxPoint x="-41" y="61" as="targetPoint" />
          </mxGeometry>
        </mxCell>
        <mxCell id="gAWKKwYR52MG0m6GFoxo-74" value="" style="endArrow=none;html=1;rounded=0;fontSize=12;startSize=8;endSize=8;curved=1;" parent="1" edge="1">
          <mxGeometry relative="1" as="geometry">
            <mxPoint x="125" y="61" as="sourcePoint" />
            <mxPoint x="125" y="6" as="targetPoint" />
          </mxGeometry>
        </mxCell>
        <mxCell id="gAWKKwYR52MG0m6GFoxo-75" value="" style="endArrow=open;endFill=1;endSize=9;html=1;rounded=0;fontSize=12;curved=1;entryX=0.464;entryY=0.364;entryDx=0;entryDy=0;entryPerimeter=0;" parent="1" target="gAWKKwYR52MG0m6GFoxo-30" edge="1">
          <mxGeometry width="160" relative="1" as="geometry">
            <mxPoint x="-91.5" y="70" as="sourcePoint" />
            <mxPoint x="-91" y="97" as="targetPoint" />
          </mxGeometry>
        </mxCell>
        <mxCell id="Ca9Ak99XLnhcYpk-P7gr-1" value="if card is invalid" style="text;html=1;align=center;verticalAlign=middle;whiteSpace=wrap;rounded=0;" vertex="1" parent="1">
          <mxGeometry x="-202" y="-176" width="103" height="18" as="geometry" />
        </mxCell>
        <mxCell id="Ca9Ak99XLnhcYpk-P7gr-4" value="" style="rhombus;whiteSpace=wrap;html=1;fontColor=#000000;fillColor=#FFFFFF;strokeColor=#000000;" vertex="1" parent="1">
          <mxGeometry x="136" y="-66.5" width="35" height="30" as="geometry" />
        </mxCell>
        <mxCell id="Ca9Ak99XLnhcYpk-P7gr-7" value="" style="endArrow=none;html=1;rounded=0;" edge="1" parent="1">
          <mxGeometry width="50" height="50" relative="1" as="geometry">
            <mxPoint x="153" y="-66.5" as="sourcePoint" />
            <mxPoint x="153" y="-88.5" as="targetPoint" />
          </mxGeometry>
        </mxCell>
        <mxCell id="Ca9Ak99XLnhcYpk-P7gr-8" value="" style="endArrow=none;html=1;rounded=0;startSize=0;" edge="1" parent="1">
          <mxGeometry width="50" height="50" relative="1" as="geometry">
            <mxPoint x="153" y="-15" as="sourcePoint" />
            <mxPoint x="153" y="-36.5" as="targetPoint" />
          </mxGeometry>
        </mxCell>
        <mxCell id="Ca9Ak99XLnhcYpk-P7gr-9" value="wrong pin" style="text;html=1;align=center;verticalAlign=middle;whiteSpace=wrap;rounded=0;" vertex="1" parent="1">
          <mxGeometry x="61" y="-76" width="60" height="30" as="geometry" />
        </mxCell>
        <mxCell id="Ca9Ak99XLnhcYpk-P7gr-10" value="correct pin" style="text;html=1;align=center;verticalAlign=middle;whiteSpace=wrap;rounded=0;" vertex="1" parent="1">
          <mxGeometry x="160" y="-43" width="60" height="30" as="geometry" />
        </mxCell>
        <mxCell id="Ca9Ak99XLnhcYpk-P7gr-11" value="Activity Diagram&amp;nbsp;&amp;nbsp;" style="text;html=1;align=center;verticalAlign=middle;whiteSpace=wrap;rounded=0;" vertex="1" parent="1">
          <mxGeometry x="-118" y="-410" width="303" height="30" as="geometry" />
        </mxCell>
        <mxCell id="Ca9Ak99XLnhcYpk-P7gr-12" value="4..b" style="text;html=1;align=center;verticalAlign=middle;whiteSpace=wrap;rounded=0;" vertex="1" parent="1">
          <mxGeometry x="-20" y="-378" width="60" height="30" as="geometry" />
        </mxCell>
      </root>
    </mxGraphModel>
  </diagram>
</mxfile>
